solid D:/hbs/Code/LibIGL_ver2/LibIGL_ver2/model/testestestsets.stl
facet normal 0.000000e+00 0.000000e+00 1.000000e+00
outer loop
vertex 1.000000e+00 -1.000000e+00 1.000000e+00
vertex 1.000000e+00 1.000000e+00 1.000000e+00
vertex -1.000000e+00 -1.000000e+00 1.000000e+00
endloop
endfacet
facet normal 0.000000e+00 0.000000e+00 1.000000e+00
outer loop
vertex 1.000000e+00 1.000000e+00 1.000000e+00
vertex -1.000000e+00 1.000000e+00 1.000000e+00
vertex -1.000000e+00 -1.000000e+00 1.000000e+00
endloop
endfacet
facet normal 1.000000e+00 0.000000e+00 0.000000e+00
outer loop
vertex 1.000000e+00 -1.000000e+00 1.000000e+00
vertex 1.000000e+00 1.000000e+00 -1.000000e+00
vertex 1.000000e+00 1.000000e+00 1.000000e+00
endloop
endfacet
facet normal 1.000000e+00 0.000000e+00 0.000000e+00
outer loop
vertex 1.000000e+00 -1.000000e+00 -1.000000e+00
vertex 1.000000e+00 1.000000e+00 -1.000000e+00
vertex 1.000000e+00 -1.000000e+00 1.000000e+00
endloop
endfacet
facet normal 0.000000e+00 0.000000e+00 -1.000000e+00
outer loop
vertex 1.000000e+00 -1.000000e+00 -1.000000e+00
vertex -1.000000e+00 1.000000e+00 -1.000000e+00
vertex 1.000000e+00 1.000000e+00 -1.000000e+00
endloop
endfacet
facet normal 0.000000e+00 0.000000e+00 -1.000000e+00
outer loop
vertex -1.000000e+00 -1.000000e+00 -1.000000e+00
vertex -1.000000e+00 1.000000e+00 -1.000000e+00
vertex 1.000000e+00 -1.000000e+00 -1.000000e+00
endloop
endfacet
facet normal -1.000000e+00 0.000000e+00 0.000000e+00
outer loop
vertex -1.000000e+00 -1.000000e+00 -1.000000e+00
vertex -1.000000e+00 1.000000e+00 1.000000e+00
vertex -1.000000e+00 1.000000e+00 -1.000000e+00
endloop
endfacet
facet normal -1.000000e+00 0.000000e+00 0.000000e+00
outer loop
vertex -1.000000e+00 -1.000000e+00 -1.000000e+00
vertex -1.000000e+00 -1.000000e+00 1.000000e+00
vertex -1.000000e+00 1.000000e+00 1.000000e+00
endloop
endfacet
facet normal 0.000000e+00 1.000000e+00 0.000000e+00
outer loop
vertex 1.000000e+00 1.000000e+00 -1.000000e+00
vertex -1.000000e+00 1.000000e+00 1.000000e+00
vertex 1.000000e+00 1.000000e+00 1.000000e+00
endloop
endfacet
facet normal 0.000000e+00 1.000000e+00 0.000000e+00
outer loop
vertex 1.000000e+00 1.000000e+00 -1.000000e+00
vertex -1.000000e+00 1.000000e+00 -1.000000e+00
vertex -1.000000e+00 1.000000e+00 1.000000e+00
endloop
endfacet
facet normal 0.000000e+00 -1.000000e+00 0.000000e+00
outer loop
vertex 1.000000e+00 -1.000000e+00 -1.000000e+00
vertex -1.000000e+00 -1.000000e+00 1.000000e+00
vertex -1.000000e+00 -1.000000e+00 -1.000000e+00
endloop
endfacet
facet normal 0.000000e+00 -1.000000e+00 0.000000e+00
outer loop
vertex 1.000000e+00 -1.000000e+00 1.000000e+00
vertex -1.000000e+00 -1.000000e+00 1.000000e+00
vertex 1.000000e+00 -1.000000e+00 -1.000000e+00
endloop
endfacet
endsolid D:/hbs/Code/LibIGL_ver2/LibIGL_ver2/model/testestestsets.stl
